<svg xmlns="http://www.w3.org/2000/svg" viewBox="0 0 220 300" fill="none">
  <!-- Placeholder: pearl-wave -->
  <!-- Replace with commissioned editorial line-illustration -->
  <!-- Style guide: see components/illustrations/IllustrationFrame.tsx -->
  <rect width="220" height="300" fill="#fbf7ef" rx="12"/>
  <text x="110" y="155" text-anchor="middle" font-family="Georgia,serif" font-size="11" fill="#a8907d" opacity="0.7">pearl-wave</text>
  <text x="110" y="172" text-anchor="middle" font-family="Georgia,serif" font-size="9" fill="#c9bba3">/public/illustrations/</text>
  <!-- Head -->
  <circle cx="110" cy="90" r="28" stroke="#2b2723" stroke-width="1.5"/>
  <!-- Hair — long -->
  <path d="M82 78 Q70 120 74 200" stroke="#1a1311" stroke-width="2.5" stroke-linecap="round"/>
  <path d="M138 78 Q150 120 146 200" stroke="#1a1311" stroke-width="2.5" stroke-linecap="round"/>
  <path d="M88 64 Q110 56 132 64" stroke="#1a1311" stroke-width="2.5" stroke-linecap="round"/>
  <!-- Body -->
  <path d="M90 118 Q88 160 90 220 Q100 230 110 230 Q120 230 130 220 Q132 160 130 118" stroke="#2b2723" stroke-width="1.5" stroke-linecap="round"/>
  <!-- Arms -->
  <path d="M90 130 Q72 148 68 172" stroke="#2b2723" stroke-width="1.5" stroke-linecap="round"/>
  <path d="M130 130 Q148 148 152 172" stroke="#2b2723" stroke-width="1.5" stroke-linecap="round"/>
  <!-- Nose ring dot -->
  <circle cx="115" cy="98" r="1.5" fill="#2b2723"/>
</svg>
